<svg width="79" height="78" viewBox="0 0 79 78" fill="none" xmlns="http://www.w3.org/2000/svg">
<g clip-path="url(#clip0_1429_4103)">
<path d="M38.25 75.75C57.9942 75.75 74 59.7442 74 40C74 20.2558 57.9942 4.25 38.25 4.25C18.5058 4.25 2.5 20.2558 2.5 40C2.5 59.7442 18.5058 75.75 38.25 75.75Z" fill="#FFC652"/>
<path d="M39.25 74.7501C19.5058 74.7501 3.5 58.7442 3.5 39.0001C3.5 34.6403 4.28042 30.4628 5.70919 26.5996" stroke="#2435A1" stroke-width="4" stroke-linecap="round" stroke-linejoin="round"/>
<path d="M39.25 16.25V61.75" stroke="#2435A1" stroke-width="4" stroke-linecap="round" stroke-linejoin="round"/>
<path d="M50.2188 23.4619C44.9505 20.5662 28.356 18.405 28.356 28.3792C28.356 40.3197 49.429 36.1044 49.429 46.6409C49.429 57.1774 35.7335 56.3844 26.25 52.9622" stroke="#2435A1" stroke-width="4" stroke-linecap="round" stroke-linejoin="round"/>
</g>
<defs>
<clipPath id="clip0_1429_4103">
<rect width="78" height="78" fill="white" transform="translate(0.25)"/>
</clipPath>
</defs>
</svg>
